<?xml version="1.0" encoding="UTF-8" standalone="no"?>
<!-- Created with Inkscape (http://www.inkscape.org/) -->

<svg
   xmlns:dc="http://purl.org/dc/elements/1.1/"
   xmlns:cc="http://creativecommons.org/ns#"
   xmlns:rdf="http://www.w3.org/1999/02/22-rdf-syntax-ns#"
   xmlns:svg="http://www.w3.org/2000/svg"
   xmlns="http://www.w3.org/2000/svg"
   xmlns:sodipodi="http://sodipodi.sourceforge.net/DTD/sodipodi-0.dtd"
   xmlns:inkscape="http://www.inkscape.org/namespaces/inkscape"
   width="310"
   height="162.70467"
   id="svg2"
   version="1.1"
   inkscape:version="0.91 r13725"
   sodipodi:docname="logo.svg"
   inkscape:export-filename="C:\Users\Saul\Documents\GitKraken\festibl-pontoon\assets\logo.png"
   inkscape:export-xdpi="72.051079"
   inkscape:export-ydpi="72.051079">
  <defs
     id="defs4" />
  <sodipodi:namedview
     id="base"
     pagecolor="#ffffff"
     bordercolor="#666666"
     borderopacity="1.0"
     inkscape:pageopacity="0.0"
     inkscape:pageshadow="2"
     inkscape:zoom="2.0000001"
     inkscape:cx="6.0254801"
     inkscape:cy="6.4018574"
     inkscape:document-units="px"
     inkscape:current-layer="layer1"
     showgrid="false"
     inkscape:window-width="1920"
     inkscape:window-height="1017"
     inkscape:window-x="-8"
     inkscape:window-y="-8"
     inkscape:window-maximized="1"
     fit-margin-top="0"
     fit-margin-left="0"
     fit-margin-right="0"
     fit-margin-bottom="0" />
  <metadata
     id="metadata7">
    <rdf:RDF>
      <cc:Work
         rdf:about="">
        <dc:format>image/svg+xml</dc:format>
        <dc:type
           rdf:resource="http://purl.org/dc/dcmitype/StillImage" />
        <dc:title></dc:title>
      </cc:Work>
    </rdf:RDF>
  </metadata>
  <g
     inkscape:label="Layer 1"
     inkscape:groupmode="layer"
     id="layer1"
     transform="translate(-175.35178,-83.689011)">
    <path
       inkscape:connector-curvature="0"
       id="path4227"
       style="font-style:normal;font-variant:normal;font-weight:normal;font-stretch:normal;font-size:medium;line-height:125%;font-family:abeatbyKai;-inkscape-font-specification:abeatbyKai;letter-spacing:0px;word-spacing:0px;fill:#1a1a1a;fill-opacity:1;stroke:none;stroke-width:1px;stroke-linecap:butt;stroke-linejoin:miter;stroke-opacity:1"
       d="m 198.39662,151.83346 -13.90351,0 0,48.61372 -7.48652,0 0,-56.48916 q 0,-8.84769 5.44474,-13.61184 5.44472,-4.86136 14.00074,-4.86136 l 1.94455,0 0,6.61146 -1.94455,0.0972 q -5.83364,0.29167 -8.26433,2.72236 -3.69463,3.88911 -3.69463,7.77821 l 0,2.33345 13.90351,0 0,6.80593 z" />
    <path
       inkscape:connector-curvature="0"
       id="path4229"
       style="font-style:normal;font-variant:normal;font-weight:normal;font-stretch:normal;font-size:medium;line-height:125%;font-family:abeatbyKai;-inkscape-font-specification:abeatbyKai;letter-spacing:0px;word-spacing:0px;fill:#1a1a1a;fill-opacity:1;stroke:none;stroke-width:1px;stroke-linecap:butt;stroke-linejoin:miter;stroke-opacity:1"
       d="m 211.93099,200.44718 -7.38928,0 0,-74.96236 7.38928,0 0,74.96236 z" />
    <path
       inkscape:connector-curvature="0"
       id="path4231"
       style="font-style:normal;font-variant:normal;font-weight:normal;font-stretch:normal;font-size:medium;line-height:125%;font-family:abeatbyKai;-inkscape-font-specification:abeatbyKai;letter-spacing:0px;word-spacing:0px;fill:#1a1a1a;fill-opacity:1;stroke:none;stroke-width:1px;stroke-linecap:butt;stroke-linejoin:miter;stroke-opacity:1"
       d="m 277.18126,172.64013 0,0.38891 0,27.41814 -7.19483,0 0,-8.65324 q -9.04216,10.3061 -22.16787,9.91721 -11.47284,-0.38892 -19.54272,-8.84771 -8.06988,-8.45879 -8.06988,-20.12609 0,-12.15343 8.65326,-20.80667 8.65324,-8.75047 20.70945,-8.26433 11.66729,0.3889 19.8344,8.94491 8.1671,8.4588 7.77819,20.02887 z m -7.38928,-0.58336 q -0.19447,-8.75049 -6.22257,-14.97304 -6.0281,-6.22255 -14.48688,-6.22255 -8.84771,0 -15.07026,6.22255 -6.22257,6.22255 -6.31979,15.07026 -0.19445,8.75047 5.73643,15.36193 6.0281,6.51424 14.48688,6.90316 9.13938,0.38891 15.5564,-6.31978 6.51424,-6.80593 6.31979,-16.04253 z" />
    <path
       inkscape:connector-curvature="0"
       id="path4233"
       style="font-style:normal;font-variant:normal;font-weight:normal;font-stretch:normal;font-size:medium;line-height:125%;font-family:abeatbyKai;-inkscape-font-specification:abeatbyKai;letter-spacing:0px;word-spacing:0px;fill:#1a1a1a;fill-opacity:1;stroke:none;stroke-width:1px;stroke-linecap:butt;stroke-linejoin:miter;stroke-opacity:1"
       d="m 305.09162,201.61391 q -20.22331,0 -20.22331,-17.20926 l 0,-58.82261 7.48652,0 0,19.34826 12.73679,0 0,6.90316 -12.73679,0 0,31.30724 q 0,12.34788 12.73679,12.34788 l 0,6.12533 z" />
    <path
       inkscape:connector-curvature="0"
       id="path4235"
       style="font-style:normal;font-variant:normal;font-weight:normal;font-stretch:normal;font-size:medium;line-height:125%;font-family:abeatbyKai;-inkscape-font-specification:abeatbyKai;letter-spacing:0px;word-spacing:0px;fill:#2c5aa0;fill-opacity:1;stroke:none;stroke-width:1px;stroke-linecap:butt;stroke-linejoin:miter;stroke-opacity:1"
       d="m 333.03388,151.83346 -13.90353,0 0,48.61372 -7.48652,0 0,-56.48916 q 0,-8.84769 5.44474,-13.61184 5.44474,-4.86136 14.00076,-4.86136 l 1.94455,0 0,6.61146 -1.94455,0.0972 q -5.83366,0.29167 -8.26433,2.72236 -3.69465,3.88911 -3.69465,7.77821 l 0,2.33345 13.90353,0 0,6.80593 z" />
    <path
       inkscape:connector-curvature="0"
       id="path4237"
       style="font-style:normal;font-variant:normal;font-weight:normal;font-stretch:normal;font-size:medium;line-height:125%;font-family:abeatbyKai;-inkscape-font-specification:abeatbyKai;letter-spacing:0px;word-spacing:0px;fill:#2c5aa0;fill-opacity:1;stroke:none;stroke-width:1px;stroke-linecap:butt;stroke-linejoin:miter;stroke-opacity:1"
       d="m 388.08363,172.73735 q 0,11.95899 -8.75049,20.70945 -8.65324,8.65324 -20.61222,8.26435 -11.57007,-0.29169 -19.63995,-8.75049 -7.97264,-8.45879 -7.97264,-20.12608 0,-12.15344 8.65324,-20.80668 8.65324,-8.75046 20.61223,-8.36155 11.57007,0.3889 19.63995,8.94491 8.06988,8.4588 8.06988,20.12609 z m -7.3893,-0.58336 q -0.29169,-8.75047 -6.31979,-14.97304 -5.93086,-6.22255 -14.38966,-6.22255 -8.84771,-0.0972 -15.07026,6.22255 -6.22255,6.22257 -6.31979,15.07026 -0.19445,8.75049 5.73643,15.36195 5.93088,6.51425 14.4869,6.80592 9.13938,0.48614 15.55638,-6.31978 6.51424,-6.80593 6.31979,-15.94531 z" />
    <path
       inkscape:connector-curvature="0"
       id="path4239"
       style="font-style:normal;font-variant:normal;font-weight:normal;font-stretch:normal;font-size:medium;line-height:125%;font-family:abeatbyKai;-inkscape-font-specification:abeatbyKai;letter-spacing:0px;word-spacing:0px;fill:#2c5aa0;fill-opacity:1;stroke:none;stroke-width:1px;stroke-linecap:butt;stroke-linejoin:miter;stroke-opacity:1"
       d="m 402.96778,200.44718 -7.3893,0 0,-74.96236 7.3893,0 0,74.96236 z" />
    <path
       inkscape:connector-curvature="0"
       id="path4241"
       style="font-style:normal;font-variant:normal;font-weight:normal;font-stretch:normal;font-size:medium;line-height:125%;font-family:abeatbyKai;-inkscape-font-specification:abeatbyKai;letter-spacing:0px;word-spacing:0px;fill:#2c5aa0;fill-opacity:1;stroke:none;stroke-width:1px;stroke-linecap:butt;stroke-linejoin:miter;stroke-opacity:1"
       d="m 418.63202,138.41606 -7.29205,0 0,-12.93124 7.29205,0 0,12.93124 z m 0,62.03112 -7.29205,0 0,-55.41966 7.29205,0 0,55.41966 z" />
    <path
       inkscape:connector-curvature="0"
       id="path4243"
       style="font-style:normal;font-variant:normal;font-weight:normal;font-stretch:normal;font-size:medium;line-height:125%;font-family:abeatbyKai;-inkscape-font-specification:abeatbyKai;letter-spacing:0px;word-spacing:0px;fill:#2c5aa0;fill-opacity:1;stroke:none;stroke-width:1px;stroke-linecap:butt;stroke-linejoin:miter;stroke-opacity:1"
       d="m 483.69696,172.73735 q 0,11.95899 -8.75047,20.70945 -8.65324,8.65324 -20.61222,8.26435 -11.57007,-0.29169 -19.63995,-8.75049 -7.97266,-8.45879 -7.97266,-20.12608 0,-12.15344 8.65324,-20.80668 8.65325,-8.75046 20.61223,-8.36155 11.57007,0.3889 19.63995,8.94491 8.06988,8.4588 8.06988,20.12609 z m -7.38929,-0.58336 q -0.29168,-8.75047 -6.31978,-14.97304 -5.93088,-6.22255 -14.38967,-6.22255 -8.84769,-0.0972 -15.07026,6.22255 -6.22256,6.22257 -6.31978,15.07026 -0.19445,8.75049 5.73641,15.36195 5.93088,6.51425 14.4869,6.80592 9.13938,0.48614 15.5564,-6.31978 6.51424,-6.80593 6.31978,-15.94531 z" />
    <rect
       style="opacity:1;fill:#1a1a1a;fill-opacity:1;fill-rule:evenodd;stroke:none;stroke-width:3;stroke-linecap:butt;stroke-miterlimit:3;stroke-dasharray:none;stroke-dashoffset:0;stroke-opacity:1"
       id="rect4204"
       width="310"
       height="10.877192"
       x="175.35178"
       y="100.91125" />
    <rect
       y="83.689011"
       x="211.60909"
       height="10.877192"
       width="237.48538"
       id="rect4206"
       style="opacity:1;fill:#214478;fill-opacity:1;fill-rule:evenodd;stroke:none;stroke-width:3;stroke-linecap:butt;stroke-miterlimit:3;stroke-dasharray:none;stroke-dashoffset:0;stroke-opacity:1" />
    <rect
       style="opacity:1;fill:#1a1a1a;fill-opacity:1;fill-rule:evenodd;stroke:none;stroke-width:3;stroke-linecap:butt;stroke-miterlimit:3;stroke-dasharray:none;stroke-dashoffset:0;stroke-opacity:1"
       id="rect4204-8"
       width="310"
       height="10.877192"
       x="175.35178"
       y="-229.17145"
       transform="scale(1,-1)" />
    <rect
       y="-246.39368"
       x="211.60909"
       height="10.877192"
       width="237.48538"
       id="rect4206-5"
       style="opacity:1;fill:#214478;fill-opacity:1;fill-rule:evenodd;stroke:none;stroke-width:3;stroke-linecap:butt;stroke-miterlimit:3;stroke-dasharray:none;stroke-dashoffset:0;stroke-opacity:1"
       transform="scale(1,-1)" />
  </g>
</svg>
